# AST/ASF file generated using VICON BodyLanguage
# -----------------------------------------------
:version 1.10
:name VICON
:units
  mass 1.0
  length 0.45
  angle deg
:documentation
   .ast/.asf automatically generated from VICON data using
   VICON BodyBuilder and BodyLanguage model FoxedUp or BRILLIANT.MOD
:root
   order TX TY TZ RX RY RZ
   axis XYZ
   position 0 0 0  
   orientation 0 0 0 
:bonedata
  begin
     id 1 
     name lhipjoint
     direction 0.623529 -0.717805 0.309788 
     length 2.23224 
     axis 0 0 0  XYZ
  end
  begin
     id 2 
     name lfemur
     direction 0.34202 -0.939693 0  
     length 7.11402  
     axis 0 0 20  XYZ
    dof rx ry rz
    limits (-160.0 20.0)
           (-70.0 70.0)
           (-60.0 70.0)
  end
  begin
     id 3 
     name ltibia
     direction 0.34202 -0.939693 0   
     length 6.78496   
     axis 0 0 20   XYZ
    dof rx
    limits (-10.0 170.0)
  end
  begin
     id 4 
     name lfoot
     direction 0.125078 -0.343648 0.930732   
     length 1.84054   
     axis -90 7.62852e-016 20   XYZ
    dof rx rz
    limits (-45.0 90.0)
           (-70.0 20.0)
  end
  begin
     id 5 
     name ltoes
     direction 1.53565e-011 -4.21893e-011 1   
     length 0.916474   
     axis -90 7.62852e-016 20   XYZ
    dof rx
    limits (-90.0 20.0)
  end
  begin
     id 6 
     name rhipjoint
     direction -0.564688 -0.757748 0.327026   
     length 2.11457  
     axis 0 0 0  XYZ 
  end
  begin
     id 7 
     name rfemur
     direction -0.34202 -0.939693 0   
     length 7.14609   
     axis 0 0 -20   XYZ
    dof rx ry rz
    limits (-160.0 20.0)
           (-70.0 70.0)
           (-70.0 60.0)
  end
  begin
     id 8 
     name rtibia
     direction -0.34202 -0.939693 0   
     length 6.78101   
     axis 0 0 -20   XYZ
    dof rx
    limits (-10.0 170.0)
 end
 begin
     id 9 
     name rfoot
     direction -0.0992671 -0.272734 0.956955   
     length 1.96168  
     axis -90 -7.62852e-016 -20   XYZ
    dof rx rz
    limits (-45.0 90.0)
           (-20.0 70.0)
  end
  begin
     id 10 
     name rtoes
     direction -1.5356e-011 -4.21891e-011 1   
     length 0.982933   
     axis -90 -7.62852e-016 -20   XYZ
    dof rx
    limits (-90.0 20.0)
  end
  begin
     id 11 
     name lowerback
     direction -0.00596953 0.998668 0.0512524   
     length 1.87557   
     axis 0 0 0   XYZ
    dof rx ry rz
    limits (-20.0 45.0)
           (-30.0 30.0)
           (-30.0 30.0)
  end
  begin
     id 12 
     name upperback
     direction 0.00584879 0.999652 0.0257308   
     length 1.87883   
     axis 0 0 0   XYZ
    dof rx ry rz
    limits (-20.0 45.0)
           (-30.0 30.0)
           (-30.0 30.0)
  end
  begin
     id 13 
     name thorax
     direction 0.010104 0.999947 0.00178881   
     length 1.87779   
     axis 0 0 0   XYZ
    dof rx ry rz
    limits (-20.0 45.0)
           (-30.0 30.0)
           (-30.0 30.0)
  end
  begin
     id 14 
     name lowerneck
     direction 0.0120771 0.995934 -0.0892773   
     length 1.40897   
     axis 0 0 0   XYZ
    dof rx ry rz
    limits (-20.0 45.0)
           (-30.0 30.0)
           (-30.0 30.0)
  end
  begin
     id 15 
     name upperneck
     direction -0.030568 0.999465 -0.0116366   
     length 1.38661   
     axis 0 0 0   XYZ
    dof rx ry rz
    limits (-20.0 45.0)
           (-30.0 30.0)
           (-30.0 30.0)
  end
  begin
     id 16
     name head
     direction -0.0170715 0.999854 -0.00104426  
     length 1.47052  
     axis 0 0 0   XYZ
    dof rx ry rz
    limits (-20.0 45.0)
           (-30.0 30.0)
           (-30.0 30.0)
  end
  begin
     id 17 
     name lclavicle
     direction 0.977763 0.206143 0.038532  
     length 3.02424  
     axis 0 0 0   XYZ
    dof ry rz
    limits (-20.0 10.0)
           (0.0 20.0)
  end
  begin
     id 18 
     name lhumerus
     direction 1 -4.48965e-011 -2.62654e-027   
     length 4.68382   
     axis 180 -30 -90   XYZ
    dof rx ry rz
    limits (-60.0 90.0)
           (-90.0 90.0)
           (-90.0 90.0)
  end
  begin
     id 19
     name lradius
     direction 1 -4.48973e-011 -1.54954e-027   
     length 2.98124   
     axis 180 -30 -90   XYZ
    dof rx
    limits (-10.0 170.0)
  end
  begin
     id 20
     name lwrist
     direction 1 -4.48959e-011 7.20928e-028   
     length 1.49062   
     axis -5.52449e-016 90 90   XYZ
    dof ry
    limits (-180.0 0.0)
 end
  begin
     id 21 
     name lhand
     direction 1 -4.48971e-011 1.44186e-027   
     length 0.707595   
     axis -9.20027e-016 90 90   XYZ
    dof rx rz
    limits (-90.0 90.0)
           (-45.0 45.0)
  end
  begin
     id 22 
     name lfingers
     direction 1 -4.48985e-011 2.88371e-027   
     length 0.570481   
     axis -1.84005e-015 90 90   XYZ
    dof rx
    limits (0.0 90.0)
  end
  begin
     id 23
     name lthumb
     direction 0.707107 -6.34929e-011 0.707107   
     length 0.819101   
     axis -90 45 2.85299e-015   XYZ
    dof rx rz
    limits (-45.0 45.0)
           (-45.0 45.0)
  end
  begin
     id 24 
     name rclavicle
     direction -0.958661 0.284411 -0.00895327   
     length 3.11921  
     axis 0 0 0   XYZ 
    dof ry rz
    limits (-10.0 20.0)
           (-20.0 0.0)
  end
  begin
     id 25 
     name rhumerus
     direction -1 -4.48963e-011 -4.22193e-027  
     length 4.75876   
     axis 180 30 90   XYZ
    dof rx ry rz
    limits (-90.0 60.0)
           (-90.0 90.0)
           (-90.0 90.0)
  end
  begin
     id 26 
     name rradius
     direction -1 -4.48968e-011 -1.07616e-027   
     length 2.93293   
     axis 180 30 90   XYZ
    dof rx
    limits (-10.0 170.0)
  end
  begin
     id 27 
     name rwrist
     direction -1 -4.48965e-011 7.20928e-028   
     length 1.46647   
     axis -5.52449e-016 -90 -90   XYZ
    dof ry
    limits (-180.0 0.0)
  end
  begin
     id 28
     name rhand
     direction -1 -4.48971e-011 1.44186e-027   
     length 0.831748   
     axis -9.20027e-016 -90 -90   XYZ
    dof rx rz
    limits (-90.0 90.0)
           (-45.0 45.0)
  end
  begin
     id 29
     name rfingers
     direction -1 -4.48961e-011 2.88371e-027   
     length 0.670577   
     axis -1.84005e-015 -90 -90   XYZ
    dof rx
    limits (0.0 90.0)
  end
  begin
     id 30
     name rthumb
     direction -0.707107 -6.34929e-011 0.707107   
     length 0.962818   
     axis -90 -45 -2.85299e-015   XYZ
    dof rx rz
    limits (-45.0 45.0)
           (-45.0 45.0)
  end
:hierarchy
  begin
    root lhipjoint rhipjoint lowerback
    lhipjoint lfemur
    lfemur ltibia
    ltibia lfoot
    lfoot ltoes
    rhipjoint rfemur
    rfemur rtibia
    rtibia rfoot
    rfoot rtoes
    lowerback upperback
    upperback thorax
    thorax lowerneck lclavicle rclavicle
    lowerneck upperneck
    upperneck head
    lclavicle lhumerus
    lhumerus lradius
    lradius lwrist
    lwrist lhand lthumb
    lhand lfingers
    rclavicle rhumerus
    rhumerus rradius
    rradius rwrist
    rwrist rhand rthumb
    rhand rfingers
  end

#!OML:ASF E:\id_vita\Project 1\Capture day 1\Session 1\Female.ASF
:FULLY-SPECIFIED
:DEGREES
264
root 31.2947 16.6162 -8.40868 -169.912 67.8513 175.093
lowerback -17.0793 2.1212 -5.22411
upperback -5.83459 4.20111 -1.84377
thorax 3.08968 2.30185 1.81635
lowerneck 11.2258 0.503348 -3.4306
upperneck -13.244 1.06967 5.7775
head -5.89816 0.298131 2.29892
rclavicle 1.10822e-014 1.59028e-014
rhumerus 12.6618 15.415 -61.1722
rradius 72.405
rwrist 1.91459
rhand -18.9334 16.3559
rfingers 7.12502
rthumb 7.36944 -13.4957
lclavicle 1.10822e-014 1.59028e-014
lhumerus -25.3544 10.9504 77.5686
lradius 69.0828
lwrist -15.0552
lhand -14.5098 23.5075
lfingers 7.12502
lthumb 11.6375 53.1643
rfemur -0.247323 10.7907 21.87
rtibia 10.0618
rfoot -9.82435 -10.7098
rtoes -12.7243
lfemur -36.8521 -10.5792 -16.4674
ltibia 21.2003
lfoot -1.62044 0.0136869
ltoes 1.5197
265
root 31.3594 16.6245 -8.47203 -170.081 67.8318 174.922
lowerback -17.1841 2.02796 -5.235
upperback -5.76132 4.07965 -1.73912
thorax 3.22179 2.23481 1.9189
lowerneck 11.5023 0.401193 -3.31402
upperneck -13.8447 0.899636 5.29833
head -6.1242 0.240467 2.14717
rclavicle -2.47487e-014 1.98785e-014
rhumerus 14.4703 15.7532 -60.1373
rradius 72.0065
rwrist 1.99653
rhand -18.8351 16.1947
rfingers 7.12502
rthumb 7.46435 -13.6536
lclavicle -2.47487e-014 1.98785e-014
lhumerus -23.3318 10.116 78.0249
lradius 69.5246
lwrist -15.222
lhand -14.7596 23.6822
lfingers 7.12502
lthumb 11.3966 53.3525
rfemur 0.191845 10.5473 21.7095
rtibia 9.99687
rfoot -9.38384 -10.5494
rtoes -15.3092
lfemur -36.6357 -10.4821 -16.8102
ltibia 21.5189
lfoot -2.14119 -0.267868
ltoes 1.38305
266
root 31.4365 16.6315 -8.52587 -170.212 67.8102 174.675
lowerback -17.397 1.96298 -5.41117
upperback -5.84231 4.04931 -1.77205
thorax 3.23991 2.22687 1.98605
lowerneck 11.0165 0.520932 -3.7252
upperneck -13.2744 1.07494 5.92686
head -5.87374 0.308551 2.39445
rclavicle -7.23576e-014 2.94201e-014
rhumerus 16.2702 16.3442 -58.6959
rradius 71.9191
rwrist 1.37263
rhand -18.6773 15.1526
rfingers 7.12502
rthumb 7.61667 -14.6902
lclavicle -7.23576e-014 2.94201e-014
lhumerus -21.3835 8.88 78.2469
lradius 69.9407
lwrist -15.3952
lhand -15.0546 24.0471
lfingers 7.12502
lthumb 11.1121 53.7329
rfemur 0.519015 10.3007 21.6029
rtibia 10.0848
rfoot -9.24982 -10.3193
rtoes -16.5553
lfemur -36.5207 -10.434 -17.0477
ltibia 21.7665
lfoot -2.61608 -0.50558
ltoes 0.984578
267
root 31.5096 16.6427 -8.58082 -170.288 67.8549 174.413
lowerback -17.3735 1.9712 -5.36859
upperback -6.17214 4.08262 -2.02598
thorax 2.89758 2.27168 1.68794
lowerneck 11.428 0.41566 -3.02894
upperneck -13.323 1.00918 5.69608
head -5.95312 0.251488 2.21284
rclavicle 8.64216e-014 1.82882e-014
rhumerus 17.1957 16.3762 -58.3072
rradius 71.5739
rwrist 1.47693
rhand -18.2375 15.0107
rfingers 7.12502
rthumb 8.04112 -14.8163
lclavicle 8.64216e-014 1.82882e-014
lhumerus -19.6991 7.48721 77.9997
lradius 70.1406
lwrist -15.7522
lhand -15.2288 23.5835
lfingers 7.12502
lthumb 10.9441 53.2783
rfemur 0.541677 10.5573 21.4177
rtibia 10.3271
rfoot -9.05497 -10.2095
rtoes -15.7929
lfemur -36.422 -10.432 -17.2611
ltibia 21.9167
lfoot -2.98337 -0.599036
ltoes 0.738995
268
root 31.5697 16.6568 -8.63748 -170.475 67.8851 174.175
lowerback -17.4558 1.89684 -5.43471
upperback -6.15994 4.00124 -1.99538
thorax 2.95195 2.23049 1.74699
lowerneck 11.618 0.48852 -2.8716
upperneck -13.6682 1.11977 5.48796
head -6.09807 0.309139 2.11435
rclavicle -2.39039e-014 -3.97569e-015
rhumerus 18.9993 16.5512 -57.2827
rradius 70.9985
rwrist 1.62593
rhand -17.9913 15.1585
rfingers 7.12502
rthumb 8.2787 -14.6593
lclavicle -2.39039e-014 -3.97569e-015
lhumerus -17.6372 6.58562 78.1397
lradius 70.2569
lwrist -15.942
lhand -15.8012 22.9504
lfingers 7.12502
lthumb 10.3919 52.6736
rfemur 0.514528 10.5985 21.181
rtibia 10.6118
rfoot -8.8426 -9.80748
rtoes -15.1207
lfemur -36.1442 -10.4143 -17.5633
ltibia 21.9929
lfoot -3.36875 -0.681207
ltoes 1.108
269
root 31.6349 16.6715 -8.6926 -170.781 67.8847 173.816
lowerback -17.7565 1.7792 -5.64226
upperback -5.99548 3.89527 -1.87655
thorax 3.26859 2.16343 1.99041
lowerneck 11.6692 0.477062 -2.87529
upperneck -14.0608 1.06458 5.12452
head -6.22661 0.309018 2.00682
rclavicle -9.28821e-014 -1.03368e-014
rhumerus 20.9816 16.614 -56.1298
rradius 70.338
rwrist 1.79281
rhand -17.9197 15.257
rfingers 7.12502
rthumb 8.34788 -14.5581
lclavicle -9.28821e-014 -1.03368e-014
lhumerus -15.4699 5.53811 78.3793
lradius 70.5218
lwrist -15.7022
lhand -17.3764 23.4021
lfingers 7.12502
lthumb 8.87209 53.1956
rfemur 0.536496 10.782 20.9765
rtibia 10.9387
rfoot -8.58902 -9.56253
rtoes -14.7114
lfemur -35.8853 -10.5023 -17.8232
ltibia 22.0533
lfoot -3.83005 -0.692917
ltoes 1.84708
270
root 31.7161 16.6828 -8.73313 -170.537 67.8138 174.062
lowerback -17.9167 1.68861 -5.88503
upperback -6.04317 3.8297 -1.77143
thorax 3.28205 2.13677 2.23117
lowerneck 11.505 0.544964 -2.82057
upperneck -13.7944 1.16938 5.20264
head -6.11884 0.353908 2.01129
rclavicle -3.02153e-014 2.34566e-014
rhumerus 22.3891 16.58 -55.2374
rradius 69.743
rwrist 1.87471
rhand -17.7642 15.0333
rfingers 7.12502
rthumb 8.49787 -14.7757
lclavicle -3.02153e-014 2.34566e-014
lhumerus -13.6319 4.18802 78.2752
lradius 70.7288
lwrist -15.7714
lhand -18.3667 23.8763
lfingers 7.12502
lthumb 7.9164 53.708
rfemur 0.709965 11.4013 21.1755
rtibia 11.1843
rfoot -7.97405 -9.79949
rtoes -14.0651
lfemur -35.6315 -10.4552 -17.8243
ltibia 22.145
lfoot -4.41145 -0.88869
ltoes 1.97198
271
root 31.7693 16.6934 -8.79068 -170.403 67.7816 174.194
lowerback -17.741 1.69827 -5.76897
upperback -6.19789 3.81378 -1.78795
thorax 3.03538 2.1436 2.13088
lowerneck 11.3267 0.551492 -3.05568
upperneck -13.4718 1.17243 5.5178
head -5.98928 0.346909 2.14762
rclavicle 5.9536e-014 -6.36111e-015
rhumerus 23.7214 16.6211 -54.3486
rradius 69.1677
rwrist 1.92906
rhand -17.5867 14.6445
rfingers 7.12502
rthumb 8.66924 -15.1575
lclavicle 5.9536e-014 -6.36111e-015
lhumerus -11.8043 2.99456 78.0885
lradius 70.8537
lwrist -16.0382
lhand -17.0535 23.3724
lfingers 7.12502
lthumb 9.18369 53.1525
rfemur 0.938584 11.0645 21.1327
rtibia 11.3519
rfoot -7.59119 -9.38735
rtoes -14.1552
lfemur -35.3508 -10.415 -18.0053
ltibia 22.2341
lfoot -4.76851 -0.93506
ltoes 2.0653
272
root 31.8419 16.7006 -8.84497 -170.196 67.8076 174.295
lowerback -17.8872 1.68992 -5.81016
upperback -6.30167 3.82482 -1.72688
thorax 2.99336 2.15836 2.22444
lowerneck 11.4275 0.404047 -2.94928
upperneck -13.5205 0.944495 5.24543
head -6.00992 0.248355 2.06333
rclavicle -1.81888e-014 4.77083e-015
rhumerus 25.0954 16.697 -53.2869
rradius 68.5847
rwrist 1.98751
rhand -17.5754 14.51
rfingers 7.12502
rthumb 8.68013 -15.2916
lclavicle -1.81888e-014 4.77083e-015
lhumerus -9.99224 1.8046 77.9837
lradius 71.1267
lwrist -16.253
lhand -17.1257 22.9966
lfingers 7.12502
lthumb 9.11404 52.7796
rfemur 1.25079 11.0539 21.1788
rtibia 11.3999
rfoot -7.07934 -9.39615
rtoes -15.0731
lfemur -35.1701 -10.4829 -18.0425
ltibia 22.3404
lfoot -5.01883 -0.718976
ltoes 2.43235
273
root 31.8939 16.7151 -8.90899 -169.973 67.9363 174.283
lowerback -17.9879 1.76164 -5.57305
upperback -6.44924 3.89586 -1.76244
thorax 2.90298 2.20327 2.06815
lowerneck 11.7953 0.26424 -2.48944
upperneck -13.8717 0.763039 4.72974
head -6.17334 0.169395 1.8424
rclavicle -2.98177e-015 1.47101e-014
rhumerus 26.5931 16.6841 -52.2471
rradius 67.8568
rwrist 2.18857
rhand -17.3095 14.6551
rfingers 7.12502
rthumb 8.93665 -15.1356
lclavicle -2.98177e-015 1.47101e-014
lhumerus -8.13533 0.603231 77.74
lradius 71.3457
lwrist -16.5142
lhand -16.9873 22.5589
lfingers 7.12502
lthumb 9.24764 52.3361
rfemur 1.11581 10.3563 20.8552
rtibia 11.6026
rfoot -7.12869 -8.56936
rtoes -15.4195
lfemur -35.1018 -10.6674 -18.1717
ltibia 22.3665
lfoot -5.28442 -0.424104
ltoes 2.54844
274
root 31.9642 16.7305 -8.96125 -169.754 68.1578 174.608
lowerback -18.1883 1.7948 -5.58905
upperback -6.36113 3.94579 -1.63099
thorax 3.08701 2.21839 2.23955
lowerneck 11.2679 0.516473 -2.99799
upperneck -13.4215 1.08025 5.2006
head -5.95726 0.322689 2.04452
rclavicle -9.88954e-015 -1.51076e-014
rhumerus 28.2777 16.5998 -51.1582
rradius 67.0338
rwrist 2.41484
rhand -16.8046 14.8492
rfingers 7.12502
rthumb 9.42387 -14.9201
lclavicle -9.88954e-015 -1.51076e-014
lhumerus -5.98775 -0.371755 77.5033
lradius 71.2882
lwrist -16.9632
lhand -16.829 22.0273
lfingers 7.12502
lthumb 9.40034 51.7977
rfemur 1.19259 10.6892 20.9009
rtibia 11.7793
rfoot -6.64271 -8.20135
rtoes -14.4262
lfemur -34.6745 -10.5315 -18.2172
ltibia 22.3852
lfoot -5.53585 -0.226423
ltoes 2.80768
275
root 32.0333 16.7471 -9.01134 -169.862 68.3405 174.386
lowerback -18.6291 1.73916 -5.97442
upperback -6.27777 3.96969 -1.49402
thorax 3.36629 2.22319 2.63227
lowerneck 11.482 0.492349 -2.8225
upperneck -13.7717 1.04951 4.93121
head -6.10116 0.315674 1.93528
rclavicle 5.46161e-014 2.50469e-014
rhumerus 29.9495 16.5103 -49.9427
rradius 66.2315
rwrist 2.60721
rhand -16.7383 15.0344
rfingers 7.12502
rthumb 9.48789 -14.732
lclavicle 5.46161e-014 2.50469e-014
lhumerus -3.71845 -1.18307 77.3028
lradius 71.1236
lwrist -17.513
lhand -16.5376 21.5809
lfingers 7.12502
lthumb 9.68148 51.3384
rfemur 1.17584 10.8668 20.7112
rtibia 11.8809
rfoot -6.22506 -7.77646
rtoes -13.8765
lfemur -34.4411 -10.4272 -18.4572
ltibia 22.4035
lfoot -5.74182 -0.0432656
ltoes 3.15517
276
root 32.0895 16.7587 -9.07042 -169.265 68.3568 174.968
lowerback -18.6232 1.82869 -5.58243
upperback -6.35048 4.0198 -1.52393
thorax 3.31231 2.25053 2.38845
lowerneck 11.5371 0.407211 -2.54989
upperneck -13.8634 0.967684 4.80603
head -6.13477 0.271073 1.85808
rclavicle 5.99336e-014 1.39149e-014
rhumerus 31.3675 16.3345 -49.0128
rradius 65.3616
rwrist 2.83076
rhand -16.8862 15.1352
rfingers 7.12502
rthumb 9.34513 -14.6377
lclavicle 5.99336e-014 1.39149e-014
lhumerus -1.68568 -2.24219 76.6928
lradius 71.0351
lwrist -17.8112
lhand -17.9558 21.8369
lfingers 7.12502
lthumb 8.31297 51.6533
rfemur 1.27661 10.706 20.7974
rtibia 11.9526
rfoot -5.98616 -7.23864
rtoes -13.6226
lfemur -34.2197 -10.5249 -18.3518
ltibia 22.4625
lfoot -6.00956 0.133789
ltoes 3.32742
